<?plantuml 1.2026.2beta2?><svg xmlns="http://www.w3.org/2000/svg" xmlns:xlink="http://www.w3.org/1999/xlink" contentStyleType="text/css" data-diagram-type="DESCRIPTION" height="701px" preserveAspectRatio="none" style="width:531px;height:701px;background:#FFFFFF;" version="1.1" viewBox="0 0 531 701" width="531px" zoomAndPan="magnify"><title>Development cycle</title><defs/><g><g class="title" data-source-line="1"><text fill="#000000" font-family="sans-serif" font-size="14" font-weight="bold" lengthAdjust="spacing" textLength="149.8096" x="183.8551" y="22.9951">Development cycle</text></g><!--entity U--><g class="entity" data-qualified-name="U" data-source-line="6" id="ent0002"><ellipse cx="438.4251" cy="357.8869" fill="#F1F1F1" rx="8" ry="8" style="stroke:#181818;stroke-width:0.5;"/><path d="M438.4251,365.8869 L438.4251,392.8869 M425.4251,373.8869 L451.4251,373.8869 M438.4251,392.8869 L425.4251,407.8869 M438.4251,392.8869 L451.4251,407.8869" fill="none" style="stroke:#181818;stroke-width:0.5;"/><text fill="#000000" font-family="sans-serif" font-size="14" lengthAdjust="spacing" textLength="31.9102" x="422.47" y="422.382">User</text></g><!--entity C--><g class="entity" data-qualified-name="C" data-source-line="7" id="ent0003"><rect fill="#F1F1F1" height="39.2969" rx="2.5" ry="2.5" style="stroke:#181818;stroke-width:0.5;" width="65.8408" x="167.51" y="214.5869"/><polygon fill="#F1F1F1" points="216.3508,219.5869,216.3508,233.5869,228.3508,233.5869,228.3508,225.5869,222.3508,219.5869,216.3508,219.5869" style="stroke:#181818;stroke-width:0.5;"/><line style="stroke:#181818;stroke-width:0.5;" x1="222.3508" x2="222.3508" y1="219.5869" y2="225.5869"/><line style="stroke:#181818;stroke-width:0.5;" x1="228.3508" x2="222.3508" y1="225.5869" y2="225.5869"/><text fill="#000000" font-family="sans-serif" font-size="14" lengthAdjust="spacing" textLength="35.8408" x="177.51" y="240.582">Code</text></g><!--entity D--><g class="entity" data-qualified-name="D" data-source-line="8" id="ent0004"><ellipse cx="56.4215" cy="204.5869" fill="#F1F1F1" rx="8" ry="8" style="stroke:#181818;stroke-width:0.5;"/><path d="M56.4215,212.5869 L56.4215,239.5869 M43.4215,220.5869 L69.4215,220.5869 M56.4215,239.5869 L43.4215,254.5869 M56.4215,239.5869 L69.4215,254.5869" fill="none" style="stroke:#181818;stroke-width:0.5;"/><text fill="#000000" font-family="sans-serif" font-size="14" lengthAdjust="spacing" textLength="72.0029" x="20.42" y="269.082">Developer</text></g><!--entity B--><g class="entity" data-qualified-name="B" data-source-line="9" id="ent0005"><rect fill="#F1F1F1" height="39.2969" rx="2.5" ry="2.5" style="stroke:#181818;stroke-width:0.5;" width="108.8525" x="7" y="367.8869"/><polygon fill="#F1F1F1" points="98.8525,372.8869,98.8525,386.8869,110.8525,386.8869,110.8525,378.8869,104.8525,372.8869,98.8525,372.8869" style="stroke:#181818;stroke-width:0.5;"/><line style="stroke:#181818;stroke-width:0.5;" x1="104.8525" x2="104.8525" y1="372.8869" y2="378.8869"/><line style="stroke:#181818;stroke-width:0.5;" x1="110.8525" x2="104.8525" y1="378.8869" y2="378.8869"/><text fill="#000000" font-family="sans-serif" font-size="14" lengthAdjust="spacing" textLength="78.8525" x="17" y="393.882">Bug Report</text></g><!--entity T--><g class="entity" data-qualified-name="T" data-source-line="10" id="ent0006"><ellipse cx="41.4287" cy="511.1869" fill="#F1F1F1" rx="8" ry="8" style="stroke:#181818;stroke-width:0.5;"/><path d="M41.4287,519.1869 L41.4287,546.1869 M28.4287,527.1869 L54.4287,527.1869 M41.4287,546.1869 L28.4287,561.1869 M41.4287,546.1869 L54.4287,561.1869" fill="none" style="stroke:#181818;stroke-width:0.5;"/><text fill="#000000" font-family="sans-serif" font-size="14" lengthAdjust="spacing" textLength="44.3174" x="19.27" y="575.682">Tester</text></g><!--entity R--><g class="entity" data-qualified-name="R" data-source-line="11" id="ent0007"><rect fill="#F1F1F1" height="39.2969" rx="2.5" ry="2.5" style="stroke:#181818;stroke-width:0.5;" width="128.2666" x="375.29" y="521.1869"/><polygon fill="#F1F1F1" points="486.5566,526.1869,486.5566,540.1869,498.5566,540.1869,498.5566,532.1869,492.5566,526.1869,486.5566,526.1869" style="stroke:#181818;stroke-width:0.5;"/><line style="stroke:#181818;stroke-width:0.5;" x1="492.5566" x2="492.5566" y1="526.1869" y2="532.1869"/><line style="stroke:#181818;stroke-width:0.5;" x1="498.5566" x2="492.5566" y1="532.1869" y2="532.1869"/><text fill="#000000" font-family="sans-serif" font-size="14" lengthAdjust="spacing" textLength="98.2666" x="385.29" y="547.182">Requirements</text></g><!--entity PR--><g class="entity" data-qualified-name="PR" data-source-line="12" id="ent0008"><rect fill="#F1F1F1" height="39.2969" rx="2.5" ry="2.5" style="stroke:#181818;stroke-width:0.5;" width="203.1885" x="220.83" y="655.9769"/><polygon fill="#F1F1F1" points="407.0185,660.9769,407.0185,674.9769,419.0185,674.9769,419.0185,666.9769,413.0185,660.9769,407.0185,660.9769" style="stroke:#181818;stroke-width:0.5;"/><line style="stroke:#181818;stroke-width:0.5;" x1="413.0185" x2="413.0185" y1="660.9769" y2="666.9769"/><line style="stroke:#181818;stroke-width:0.5;" x1="419.0185" x2="413.0185" y1="666.9769" y2="666.9769"/><text fill="#000000" font-family="sans-serif" font-size="14" lengthAdjust="spacing" textLength="173.1885" x="230.83" y="681.972">Prioritised Requirements</text></g><!--entity TC--><g class="entity" data-qualified-name="TC" data-source-line="13" id="ent0009"><rect fill="#F1F1F1" height="39.2969" rx="2.5" ry="2.5" style="stroke:#181818;stroke-width:0.5;" width="98.6602" x="138.1" y="521.1869"/><polygon fill="#F1F1F1" points="219.7602,526.1869,219.7602,540.1869,231.7602,540.1869,231.7602,532.1869,225.7602,526.1869,219.7602,526.1869" style="stroke:#181818;stroke-width:0.5;"/><line style="stroke:#181818;stroke-width:0.5;" x1="225.7602" x2="225.7602" y1="526.1869" y2="532.1869"/><line style="stroke:#181818;stroke-width:0.5;" x1="231.7602" x2="225.7602" y1="532.1869" y2="532.1869"/><text fill="#000000" font-family="sans-serif" font-size="14" lengthAdjust="spacing" textLength="68.6602" x="148.1" y="547.182">Test Case</text></g><!--entity RN--><g class="entity" data-qualified-name="RN" data-source-line="15" id="ent0010"><rect fill="#F1F1F1" height="39.2969" rx="2.5" ry="2.5" style="stroke:#181818;stroke-width:0.5;" width="122.9209" x="375.97" y="214.5869"/><polygon fill="#F1F1F1" points="481.8909,219.5869,481.8909,233.5869,493.8909,233.5869,493.8909,225.5869,487.8909,219.5869,481.8909,219.5869" style="stroke:#181818;stroke-width:0.5;"/><line style="stroke:#181818;stroke-width:0.5;" x1="487.8909" x2="487.8909" y1="219.5869" y2="225.5869"/><line style="stroke:#181818;stroke-width:0.5;" x1="493.8909" x2="487.8909" y1="225.5869" y2="225.5869"/><text fill="#000000" font-family="sans-serif" font-size="14" lengthAdjust="spacing" textLength="92.9209" x="385.97" y="240.582">Release Note</text></g><!--entity M--><g class="entity" data-qualified-name="M" data-source-line="16" id="ent0011"><ellipse cx="322.426" cy="51.2969" fill="#F1F1F1" rx="8" ry="8" style="stroke:#181818;stroke-width:0.5;"/><path d="M322.426,59.2969 L322.426,86.2969 M309.426,67.2969 L335.426,67.2969 M322.426,86.2969 L309.426,101.2969 M322.426,86.2969 L335.426,101.2969" fill="none" style="stroke:#181818;stroke-width:0.5;"/><text fill="#000000" font-family="sans-serif" font-size="14" lengthAdjust="spacing" textLength="45.7119" x="299.57" y="115.792">Owner</text></g><!--link D to C--><g class="link" data-entity-1="ent0004" data-entity-2="ent0003" data-link-type="dependency" data-source-line="18" id="lnk12"><path d="M92.76,234.2369 C115.59,234.2369 138.82,234.2369 161.06,234.2369" fill="none" id="D-to-C" style="stroke:#181818;stroke-width:1;"/><polygon fill="#181818" points="167.06,234.2369,158.06,230.2369,162.06,234.2369,158.06,238.2369,167.06,234.2369" style="stroke:#181818;stroke-width:1;"/><text fill="#000000" font-family="sans-serif" font-size="13" lengthAdjust="spacing" textLength="39.457" x="110.47" y="227.3038">writes</text></g><!--reverse link D to B--><g class="link" data-entity-1="ent0004" data-entity-2="ent0005" data-link-type="dependency" data-source-line="19" id="lnk14"><path d="M57.8592,278.6336 C58.8592,308.7336 60.01,343.8069 60.8,367.5169" fill="none" id="D-backto-B" style="stroke:#181818;stroke-width:1;stroke-dasharray:7,7;"/><polygon fill="#181818" points="57.66,272.6369,53.961,281.7647,57.826,277.6341,61.9566,281.4991,57.66,272.6369" style="stroke:#181818;stroke-width:1;"/><text fill="#000000" font-family="sans-serif" font-size="13" lengthAdjust="spacing" textLength="54.3359" x="60.43" y="315.4538">prompts</text></g><!--link T to TC--><g class="link" data-entity-1="ent0006" data-entity-2="ent0009" data-link-type="dependency" data-source-line="20" id="lnk15"><path d="M63.92,540.8269 C83.52,540.8269 106.64,540.8269 131.68,540.8269" fill="none" id="T-to-TC" style="stroke:#181818;stroke-width:1;"/><polygon fill="#181818" points="137.68,540.8269,128.68,536.8269,132.68,540.8269,128.68,544.8269,137.68,540.8269" style="stroke:#181818;stroke-width:1;"/><text fill="#000000" font-family="sans-serif" font-size="13" lengthAdjust="spacing" textLength="38.0098" x="81.84" y="533.8938">drafts</text></g><!--link U to R--><g class="link" data-entity-1="ent0002" data-entity-2="ent0007" data-link-type="dependency" data-source-line="21" id="lnk16"><path d="M438.67,425.9369 C438.87,456.0369 439.0995,491.107 439.2595,514.817" fill="none" id="U-to-R" style="stroke:#181818;stroke-width:1;"/><polygon fill="#181818" points="439.3,520.8169,443.2392,511.7901,439.2663,515.817,435.2394,511.8441,439.3,520.8169" style="stroke:#181818;stroke-width:1;"/><text fill="#000000" font-family="sans-serif" font-size="13" lengthAdjust="spacing" textLength="62.1499" x="439.43" y="468.7538">describes</text></g><!--link R to PR--><g class="link" data-entity-1="ent0007" data-entity-2="ent0008" data-link-type="dependency" data-source-line="22" id="lnk17"><path d="M422.66,560.8569 C400.42,586.1069 365.3455,625.9042 343.1255,651.1342" fill="none" id="R-to-PR" style="stroke:#181818;stroke-width:1;"/><polygon fill="#181818" points="339.16,655.6369,348.1101,651.5265,342.4646,651.8846,342.1065,646.2391,339.16,655.6369" style="stroke:#181818;stroke-width:1;"/></g><!--link M to PR--><g class="link" data-entity-1="ent0011" data-entity-2="ent0008" data-link-type="dependency" data-source-line="23" id="lnk18"><path d="M322.43,119.5569 C322.43,150.1669 322.43,194.4969 322.43,233.2369 C322.43,233.2369 322.43,233.2369 322.43,541.8269 C322.43,582.4069 322.43,623.9569 322.43,649.7169" fill="none" id="M-to-PR" style="stroke:#181818;stroke-width:1;"/><polygon fill="#181818" points="322.43,655.7169,326.43,646.7169,322.43,650.7169,318.43,646.7169,322.43,655.7169" style="stroke:#181818;stroke-width:1;"/><text fill="#000000" font-family="sans-serif" font-size="13" lengthAdjust="spacing" textLength="45.3984" x="323.43" y="392.1038">selects</text></g><!--reverse link TC to PR--><g class="link" data-entity-1="ent0009" data-entity-2="ent0008" data-link-type="dependency" data-source-line="24" id="lnk19"><path d="M192.2631,566.5423 C196.5731,585.1623 204.19,607.5869 221.43,625.9769 C233.2,638.5469 248.91,648.2369 264.42,655.5469" fill="none" id="TC-backto-PR" style="stroke:#181818;stroke-width:1;stroke-dasharray:7,7;"/><polygon fill="#181818" points="190.91,560.6969,189.0426,570.3671,192.0375,565.5681,196.8365,568.563,190.91,560.6969" style="stroke:#181818;stroke-width:1;"/><text fill="#000000" font-family="sans-serif" font-size="13" lengthAdjust="spacing" textLength="73.5059" x="222.43" y="622.0438">is traced to</text></g><!--reverse link C to TC--><g class="link" data-entity-1="ent0003" data-entity-2="ent0009" data-link-type="dependency" data-source-line="26" id="lnk21"><path d="M199.3547,260.2814 C197.0247,314.9914 190.57,466.0969 188.24,520.7869" fill="none" id="C-backto-TC" style="stroke:#181818;stroke-width:1;"/><polygon fill="#181818" points="199.61,254.2869,195.2307,263.1085,199.3973,259.2823,203.2234,263.4489,199.61,254.2869" style="stroke:#181818;stroke-width:1;"/><text fill="#000000" font-family="sans-serif" font-size="13" lengthAdjust="spacing" textLength="63.3433" x="197.43" y="392.1038">evaluates</text></g><!--reverse link B to TC--><g class="link" data-entity-1="ent0005" data-entity-2="ent0009" data-link-type="dependency" data-source-line="27" id="lnk23"><path d="M56.4388,413.3957 C53.6188,431.5457 53.2,453.0769 65.43,472.6869 C81.61,498.6369 111.59,515.3369 137.78,525.5869" fill="none" id="B-backto-TC" style="stroke:#181818;stroke-width:1;"/><polygon fill="#181818" points="57.36,407.4669,52.0257,415.7461,56.5924,412.4076,59.9308,416.9743,57.36,407.4669" style="stroke:#181818;stroke-width:1;"/><text fill="#000000" font-family="sans-serif" font-size="13" lengthAdjust="spacing" textLength="94.0024" x="66.43" y="468.7538">[fail] produces</text></g><!--reverse link M to C--><g class="link" data-entity-1="ent0011" data-entity-2="ent0003" data-link-type="dependency" data-source-line="29" id="lnk24"><path d="M293.3775,88.2953 C263.7375,95.8853 219.49,112.1969 197.43,149.0869 C185.57,168.9169 189.49,196.3169 194.23,214.3969" fill="none" id="M-backto-C" style="stroke:#181818;stroke-width:1;"/><polygon fill="#181818" points="299.19,86.8069,289.479,85.1645,294.3463,88.0472,291.4636,92.9145,299.19,86.8069" style="stroke:#181818;stroke-width:1;"/><text fill="#000000" font-family="sans-serif" font-size="13" lengthAdjust="spacing" textLength="97.8237" x="198.43" y="162.1538">is published by</text></g><!--link M to RN--><g class="link" data-entity-1="ent0011" data-entity-2="ent0010" data-link-type="dependency" data-source-line="30" id="lnk25"><path d="M345.7,112.5569 C368.8,142.9569 399.859,183.8203 419.289,209.3803" fill="none" id="M-to-RN" style="stroke:#181818;stroke-width:1;"/><polygon fill="#181818" points="422.92,214.1569,420.6579,204.5713,419.8941,210.1764,414.2891,209.4127,422.92,214.1569" style="stroke:#181818;stroke-width:1;"/><text fill="#000000" font-family="sans-serif" font-size="13" lengthAdjust="spacing" textLength="139.0898" x="384.43" y="162.1538">publishes (with code)</text></g><!--link RN to U--><g class="link" data-entity-1="ent0010" data-entity-2="ent0002" data-link-type="dependency" data-source-line="31" id="lnk26"><path d="M437.55,254.0969 C437.71,277.7769 437.9402,312.967 438.1402,343.137" fill="none" id="RN-to-U" style="stroke:#181818;stroke-width:1;stroke-dasharray:7,7;"/><polygon fill="#181818" points="438.18,349.1369,442.1203,340.1106,438.1469,344.137,434.1204,340.1636,438.18,349.1369" style="stroke:#181818;stroke-width:1;"/><text fill="#000000" font-family="sans-serif" font-size="13" lengthAdjust="spacing" textLength="49.1626" x="438.43" y="315.4538">informs</text></g><?plantuml-src TL4nRiCm3Dpr2Y9Bsi5-W15aYBCsDGndAZeeCfq8bIrNf1FazwLYrMY6Ri8TZtT7iMM7iCShEZ_sE32Okt6erDfXny0UWZrV65eRqB3rWw8lEumww1w8xw8b3jRmr3kbj64Vu0YW2LP7mh1IEh3j18ToHalVuYeDxcSecJzDxsPgDvsXnj47_jKqCz4WyPEWdl4QloT96elG7xPAT1Mi3vOjOGl_Z3RbOW2b9Wcxdfshj68wEKkNP_D3CdSe2ZXuNZg-FPZtsn05QWzPoBPoYm9kaWD9IT5yohVn5WMCmVSZashciIREjK5t0ibHCu7gEDOYcM1FegvdjAhLMte8JHB3n2qbRFByqRq0Iy116-dDNaKAiYabmQjsauvX5dWN9H-TjkupXced8wnuRB8iVkHZtPWEqSBfdkpb3iM24xpSB5_0o8-_Ag5ogNcCsg7peQSV?></g></svg>