<?plantuml 1.2026.2beta2?><svg xmlns="http://www.w3.org/2000/svg" xmlns:xlink="http://www.w3.org/1999/xlink" contentStyleType="text/css" data-diagram-type="DESCRIPTION" height="611px" preserveAspectRatio="none" style="width:487px;height:611px;background:#FFFFFF;" version="1.1" viewBox="0 0 487 611" width="487px" zoomAndPan="magnify"><title>Where development artifacts actually live</title><defs/><g><g class="title" data-source-line="1"><text fill="#000000" font-family="sans-serif" font-size="14" font-weight="bold" lengthAdjust="spacing" textLength="331.6182" x="71.0789" y="22.9951">Where development artifacts actually live</text></g><!--entity Code--><g class="entity" data-qualified-name="Code" data-source-line="7" id="ent0002"><rect fill="#F1F1F1" height="39.2969" rx="2.5" ry="2.5" style="stroke:#181818;stroke-width:0.5;" width="65.8408" x="93.12" y="344.2969"/><polygon fill="#F1F1F1" points="141.9608,349.2969,141.9608,363.2969,153.9608,363.2969,153.9608,355.2969,147.9608,349.2969,141.9608,349.2969" style="stroke:#181818;stroke-width:0.5;"/><line style="stroke:#181818;stroke-width:0.5;" x1="147.9608" x2="147.9608" y1="349.2969" y2="355.2969"/><line style="stroke:#181818;stroke-width:0.5;" x1="153.9608" x2="147.9608" y1="355.2969" y2="355.2969"/><text fill="#000000" font-family="sans-serif" font-size="14" lengthAdjust="spacing" textLength="35.8408" x="103.12" y="370.292">Code</text></g><!--entity Bug--><g class="entity" data-qualified-name="Bug" data-source-line="8" id="ent0003"><rect fill="#F1F1F1" height="39.2969" rx="2.5" ry="2.5" style="stroke:#181818;stroke-width:0.5;" width="108.8525" x="71.61" y="44.2969"/><polygon fill="#F1F1F1" points="163.4625,49.2969,163.4625,63.2969,175.4625,63.2969,175.4625,55.2969,169.4625,49.2969,163.4625,49.2969" style="stroke:#181818;stroke-width:0.5;"/><line style="stroke:#181818;stroke-width:0.5;" x1="169.4625" x2="169.4625" y1="49.2969" y2="55.2969"/><line style="stroke:#181818;stroke-width:0.5;" x1="175.4625" x2="169.4625" y1="55.2969" y2="55.2969"/><text fill="#000000" font-family="sans-serif" font-size="14" lengthAdjust="spacing" textLength="78.8525" x="81.61" y="70.292">Bug Report</text></g><!--entity Requirements--><g class="entity" data-qualified-name="Requirements" data-source-line="9" id="ent0004"><rect fill="#F1F1F1" height="39.2969" rx="2.5" ry="2.5" style="stroke:#181818;stroke-width:0.5;" width="128.2666" x="61.9" y="270.2969"/><polygon fill="#F1F1F1" points="173.1666,275.2969,173.1666,289.2969,185.1666,289.2969,185.1666,281.2969,179.1666,275.2969,173.1666,275.2969" style="stroke:#181818;stroke-width:0.5;"/><line style="stroke:#181818;stroke-width:0.5;" x1="179.1666" x2="179.1666" y1="275.2969" y2="281.2969"/><line style="stroke:#181818;stroke-width:0.5;" x1="185.1666" x2="179.1666" y1="281.2969" y2="281.2969"/><text fill="#000000" font-family="sans-serif" font-size="14" lengthAdjust="spacing" textLength="98.2666" x="71.9" y="296.292">Requirements</text></g><!--entity PR--><g class="entity" data-qualified-name="PR" data-source-line="10" id="ent0005"><rect fill="#F1F1F1" height="39.2969" rx="2.5" ry="2.5" style="stroke:#181818;stroke-width:0.5;" width="203.1885" x="24.44" y="118.2969"/><polygon fill="#F1F1F1" points="210.6285,123.2969,210.6285,137.2969,222.6285,137.2969,222.6285,129.2969,216.6285,123.2969,210.6285,123.2969" style="stroke:#181818;stroke-width:0.5;"/><line style="stroke:#181818;stroke-width:0.5;" x1="216.6285" x2="216.6285" y1="123.2969" y2="129.2969"/><line style="stroke:#181818;stroke-width:0.5;" x1="222.6285" x2="216.6285" y1="129.2969" y2="129.2969"/><text fill="#000000" font-family="sans-serif" font-size="14" lengthAdjust="spacing" textLength="173.1885" x="34.44" y="144.292">Prioritised Requirements</text></g><!--entity TCH--><g class="entity" data-qualified-name="TCH" data-source-line="12" id="ent0006"><rect fill="#F1F1F1" height="39.2969" rx="2.5" ry="2.5" style="stroke:#181818;stroke-width:0.5;" width="238.0723" x="7" y="418.2969"/><polygon fill="#F1F1F1" points="228.0723,423.2969,228.0723,437.2969,240.0723,437.2969,240.0723,429.2969,234.0723,423.2969,228.0723,423.2969" style="stroke:#181818;stroke-width:0.5;"/><line style="stroke:#181818;stroke-width:0.5;" x1="234.0723" x2="234.0723" y1="423.2969" y2="429.2969"/><line style="stroke:#181818;stroke-width:0.5;" x1="240.0723" x2="234.0723" y1="429.2969" y2="429.2969"/><text fill="#000000" font-family="sans-serif" font-size="14" lengthAdjust="spacing" textLength="208.0723" x="17" y="444.292">Test Cases (expected results)</text></g><!--entity TCM--><g class="entity" data-qualified-name="TCM" data-source-line="13" id="ent0007"><rect fill="#F1F1F1" height="39.2969" rx="2.5" ry="2.5" style="stroke:#181818;stroke-width:0.5;" width="164.6338" x="43.72" y="566.2969"/><polygon fill="#F1F1F1" points="191.3538,571.2969,191.3538,585.2969,203.3538,585.2969,203.3538,577.2969,197.3538,571.2969,191.3538,571.2969" style="stroke:#181818;stroke-width:0.5;"/><line style="stroke:#181818;stroke-width:0.5;" x1="197.3538" x2="197.3538" y1="571.2969" y2="577.2969"/><line style="stroke:#181818;stroke-width:0.5;" x1="203.3538" x2="197.3538" y1="577.2969" y2="577.2969"/><text fill="#000000" font-family="sans-serif" font-size="14" lengthAdjust="spacing" textLength="134.6338" x="53.72" y="592.292">Test Cases (inputs)</text></g><!--entity TR--><g class="entity" data-qualified-name="TR" data-source-line="14" id="ent0008"><rect fill="#F1F1F1" height="39.2969" rx="2.5" ry="2.5" style="stroke:#181818;stroke-width:0.5;" width="115.1143" x="68.48" y="492.2969"/><polygon fill="#F1F1F1" points="166.5943,497.2969,166.5943,511.2969,178.5943,511.2969,178.5943,503.2969,172.5943,497.2969,166.5943,497.2969" style="stroke:#181818;stroke-width:0.5;"/><line style="stroke:#181818;stroke-width:0.5;" x1="172.5943" x2="172.5943" y1="497.2969" y2="503.2969"/><line style="stroke:#181818;stroke-width:0.5;" x1="178.5943" x2="172.5943" y1="503.2969" y2="503.2969"/><text fill="#000000" font-family="sans-serif" font-size="14" lengthAdjust="spacing" textLength="85.1143" x="78.48" y="518.292">Test Runner</text></g><!--entity RN--><g class="entity" data-qualified-name="RN" data-source-line="16" id="ent0009"><rect fill="#F1F1F1" height="39.2969" rx="2.5" ry="2.5" style="stroke:#181818;stroke-width:0.5;" width="130.2148" x="60.93" y="196.2969"/><polygon fill="#F1F1F1" points="174.1448,201.2969,174.1448,215.2969,186.1448,215.2969,186.1448,207.2969,180.1448,201.2969,174.1448,201.2969" style="stroke:#181818;stroke-width:0.5;"/><line style="stroke:#181818;stroke-width:0.5;" x1="180.1448" x2="180.1448" y1="201.2969" y2="207.2969"/><line style="stroke:#181818;stroke-width:0.5;" x1="186.1448" x2="180.1448" y1="207.2969" y2="207.2969"/><text fill="#000000" font-family="sans-serif" font-size="14" lengthAdjust="spacing" textLength="100.2148" x="70.93" y="222.292">Release Notes</text></g><!--entity JIRA--><g class="entity" data-qualified-name="JIRA" data-source-line="19" id="ent0010"><polygon fill="#F1F1F1" points="354.14,121.7969,364.14,111.7969,421.7025,111.7969,421.7025,148.0938,411.7025,158.0938,354.14,158.0938,354.14,121.7969" style="stroke:#181818;stroke-width:0.5;"/><line style="stroke:#181818;stroke-width:0.5;" x1="411.7025" x2="421.7025" y1="121.7969" y2="111.7969"/><line style="stroke:#181818;stroke-width:0.5;" x1="354.14" x2="411.7025" y1="121.7969" y2="121.7969"/><line style="stroke:#181818;stroke-width:0.5;" x1="411.7025" x2="411.7025" y1="121.7969" y2="158.0938"/><text fill="#000000" font-family="sans-serif" font-size="14" lengthAdjust="spacing" textLength="27.5625" x="369.14" y="144.792">JIRA</text></g><!--entity Confluence--><g class="entity" data-qualified-name="Confluence" data-source-line="20" id="ent0011"><polygon fill="#F1F1F1" points="328.57,317.7969,338.57,307.7969,447.2721,307.7969,447.2721,344.0938,437.2721,354.0938,328.57,354.0938,328.57,317.7969" style="stroke:#181818;stroke-width:0.5;"/><line style="stroke:#181818;stroke-width:0.5;" x1="437.2721" x2="447.2721" y1="317.7969" y2="307.7969"/><line style="stroke:#181818;stroke-width:0.5;" x1="328.57" x2="437.2721" y1="317.7969" y2="317.7969"/><line style="stroke:#181818;stroke-width:0.5;" x1="437.2721" x2="437.2721" y1="317.7969" y2="354.0938"/><text fill="#000000" font-family="sans-serif" font-size="14" lengthAdjust="spacing" textLength="78.7021" x="343.57" y="340.792">Confluence</text></g><!--entity Win--><g class="entity" data-qualified-name="Win" data-source-line="21" id="ent0012"><polygon fill="#F1F1F1" points="305.07,498.7969,315.07,488.7969,470.7761,488.7969,470.7761,525.0938,460.7761,535.0938,305.07,535.0938,305.07,498.7969" style="stroke:#181818;stroke-width:0.5;"/><line style="stroke:#181818;stroke-width:0.5;" x1="460.7761" x2="470.7761" y1="498.7969" y2="488.7969"/><line style="stroke:#181818;stroke-width:0.5;" x1="305.07" x2="460.7761" y1="498.7969" y2="498.7969"/><line style="stroke:#181818;stroke-width:0.5;" x1="460.7761" x2="460.7761" y1="498.7969" y2="535.0938"/><text fill="#000000" font-family="sans-serif" font-size="14" lengthAdjust="spacing" textLength="125.7061" x="320.07" y="521.792">Windows Network</text></g><!--entity Email--><g class="entity" data-qualified-name="Email" data-source-line="22" id="ent0013"><polygon fill="#F1F1F1" points="348.5,202.7969,358.5,192.7969,427.3418,192.7969,427.3418,229.0938,417.3418,239.0938,348.5,239.0938,348.5,202.7969" style="stroke:#181818;stroke-width:0.5;"/><line style="stroke:#181818;stroke-width:0.5;" x1="417.3418" x2="427.3418" y1="202.7969" y2="192.7969"/><line style="stroke:#181818;stroke-width:0.5;" x1="348.5" x2="417.3418" y1="202.7969" y2="202.7969"/><line style="stroke:#181818;stroke-width:0.5;" x1="417.3418" x2="417.3418" y1="202.7969" y2="239.0938"/><text fill="#000000" font-family="sans-serif" font-size="14" lengthAdjust="spacing" textLength="38.8418" x="363.5" y="225.792">Email</text></g><!--link Bug to JIRA--><g class="link" data-entity-1="ent0003" data-entity-2="ent0010" data-link-type="dependency" data-source-line="25" id="lnk14"><path d="M180.89,78.6569 C232.92,92.8769 304.3121,112.3756 347.9421,124.2956" fill="none" id="Bug-to-JIRA" style="stroke:#181818;stroke-width:1;"/><polygon fill="#181818" points="353.73,125.8769,346.1024,119.6464,348.9068,124.5591,343.994,127.3635,353.73,125.8769" style="stroke:#181818;stroke-width:1;"/></g><!--link Requirements to Confluence--><g class="link" data-entity-1="ent0004" data-entity-2="ent0011" data-link-type="dependency" data-source-line="27" id="lnk15"><path d="M190.61,299.9769 C232.69,306.6169 281.5332,314.3228 322.5232,320.7828" fill="none" id="Requirements-to-Confluence" style="stroke:#181818;stroke-width:1;"/><polygon fill="#181818" points="328.45,321.7169,320.1824,316.3645,323.511,320.9385,318.937,324.267,328.45,321.7169" style="stroke:#181818;stroke-width:1;"/></g><!--link PR to JIRA--><g class="link" data-entity-1="ent0005" data-entity-2="ent0010" data-link-type="dependency" data-source-line="28" id="lnk16"><path d="M227.89,136.7869 C272.55,136.2669 316.0404,135.7668 347.7704,135.3968" fill="none" id="PR-to-JIRA" style="stroke:#181818;stroke-width:1;"/><polygon fill="#181818" points="353.77,135.3269,344.724,131.4321,348.7703,135.3852,344.8173,139.4315,353.77,135.3269" style="stroke:#181818;stroke-width:1;"/></g><!--link Code to Confluence--><g class="link" data-entity-1="ent0002" data-entity-2="ent0011" data-link-type="dependency" data-source-line="30" id="lnk17"><path d="M159.43,359.8369 C201.54,354.4869 269.9178,345.8027 322.1278,339.1727" fill="none" id="Code-to-Confluence" style="stroke:#181818;stroke-width:1;"/><polygon fill="#181818" points="328.08,338.4169,318.6478,335.5825,323.1198,339.0468,319.6556,343.5188,328.08,338.4169" style="stroke:#181818;stroke-width:1;"/></g><!--link Code to Win--><g class="link" data-entity-1="ent0002" data-entity-2="ent0012" data-link-type="dependency" data-source-line="31" id="lnk18"><path d="M159.21,369.9669 C185.52,375.7369 223.13,385.9669 253.07,401.9469 C296.59,425.1769 335.0102,459.5716 360.0802,484.3216" fill="none" id="Code-to-Win" style="stroke:#181818;stroke-width:1;"/><polygon fill="#181818" points="364.35,488.5369,360.7555,479.3674,360.7918,485.0241,355.1351,485.0605,364.35,488.5369" style="stroke:#181818;stroke-width:1;"/></g><!--link TCH to Confluence--><g class="link" data-entity-1="ent0006" data-entity-2="ent0011" data-link-type="dependency" data-source-line="33" id="lnk19"><path d="M204.51,417.8069 C220.75,412.8669 237.64,407.1769 253.07,400.9469 C285.66,387.7969 315.5722,372.1713 341.6722,357.4713" fill="none" id="TCH-to-Confluence" style="stroke:#181818;stroke-width:1;"/><polygon fill="#181818" points="346.9,354.5269,337.0953,355.4583,342.5435,356.9806,341.0212,362.4287,346.9,354.5269" style="stroke:#181818;stroke-width:1;"/></g><!--link TCM to Win--><g class="link" data-entity-1="ent0007" data-entity-2="ent0012" data-link-type="dependency" data-source-line="34" id="lnk20"><path d="M197.71,565.8269 C230.78,556.4069 264.5892,546.7792 298.9892,536.9892" fill="none" id="TCM-to-Win" style="stroke:#181818;stroke-width:1;"/><polygon fill="#181818" points="304.76,535.3469,295.0088,533.9632,299.951,536.7155,297.1986,541.6576,304.76,535.3469" style="stroke:#181818;stroke-width:1;"/></g><!--link TR to Win--><g class="link" data-entity-1="ent0008" data-entity-2="ent0012" data-link-type="dependency" data-source-line="36" id="lnk21"><path d="M184.07,511.9469 C219.48,511.9469 259.58,511.9469 298.87,511.9469" fill="none" id="TR-to-Win" style="stroke:#181818;stroke-width:1;"/><polygon fill="#181818" points="304.87,511.9469,295.87,507.9469,299.87,511.9469,295.87,515.9469,304.87,511.9469" style="stroke:#181818;stroke-width:1;"/></g><!--link RN to Confluence--><g class="link" data-entity-1="ent0009" data-entity-2="ent0011" data-link-type="dependency" data-source-line="38" id="lnk22"><path d="M191.57,231.6469 C211.63,237.3869 233.59,244.5569 253.07,252.9469 C288.15,268.0469 320.4532,287.1519 346.7532,304.0619" fill="none" id="RN-to-Confluence" style="stroke:#181818;stroke-width:1;"/><polygon fill="#181818" points="351.8,307.3069,346.3931,299.0749,347.5943,304.6028,342.0665,305.804,351.8,307.3069" style="stroke:#181818;stroke-width:1;"/></g><!--link RN to Email--><g class="link" data-entity-1="ent0009" data-entity-2="ent0013" data-link-type="dependency" data-source-line="39" id="lnk23"><path d="M191.61,215.9469 C240.77,215.9469 300.81,215.9469 342.11,215.9469" fill="none" id="RN-to-Email" style="stroke:#181818;stroke-width:1;"/><polygon fill="#181818" points="348.11,215.9469,339.11,211.9469,343.11,215.9469,339.11,219.9469,348.11,215.9469" style="stroke:#181818;stroke-width:1;"/></g><?plantuml-src TL7DQiCm3BxxAKGlsmvbJx11LmRheA6uXPvDewQYZftPShiozkvJahNn0lCXMDBtetncOekmFM10AF64rZSrEWOJcFPcnn7aauor5x1qGgNYaLnZWgaXyaMeaGC9ehRAufw1FGIg3Wmb1TmnUQVK7Jor1sOtpQvMLm-O-nA7QlAIAj3O-C0JC16a78OQFv8ejpl6ZB8Av0CnHIp_G3g1bLRiAsJvoQ-Ciy4erYPYX7lyR6HR8GUCoN9yw8YR-Ti_UCaW3QZb6AMJSnZwgLRVsLYZHP60mZFss-bYI6ZDFfWAuH7MbyXONvDo4X2yB_Iilyszszk4ReTzFTcIA_qvGe5yzk7OwKgldxxMXkpWiJHDGwwwIhTXJwVFlRhAi-lQcTLAPy3soSQ0Mw-rLXBU6219PNCzt7KnXlvskjr_0000?></g></svg>