<?plantuml 1.2026.2beta2?><svg xmlns="http://www.w3.org/2000/svg" xmlns:xlink="http://www.w3.org/1999/xlink" contentStyleType="text/css" data-diagram-type="DESCRIPTION" height="611px" preserveAspectRatio="none" style="width:498px;height:611px;background:#FFFFFF;" version="1.1" viewBox="0 0 498 611" width="498px" zoomAndPan="magnify"><title>Where development artifacts actually live</title><defs/><g><g class="title" data-source-line="1"><text fill="#000000" font-family="sans-serif" font-size="14" font-weight="bold" lengthAdjust="spacing" textLength="331.6182" x="76.2189" y="22.9951">Where development artifacts actually live</text></g><!--entity Code--><g class="entity" data-qualified-name="Code" data-source-line="7" id="ent0002"><rect fill="#F1F1F1" height="39.2969" rx="2.5" ry="2.5" style="stroke:#181818;stroke-width:0.5;" width="65.8408" x="98.25" y="344.2969"/><polygon fill="#F1F1F1" points="147.0908,349.2969,147.0908,363.2969,159.0908,363.2969,159.0908,355.2969,153.0908,349.2969,147.0908,349.2969" style="stroke:#181818;stroke-width:0.5;"/><line style="stroke:#181818;stroke-width:0.5;" x1="153.0908" x2="153.0908" y1="349.2969" y2="355.2969"/><line style="stroke:#181818;stroke-width:0.5;" x1="159.0908" x2="153.0908" y1="355.2969" y2="355.2969"/><text fill="#000000" font-family="sans-serif" font-size="14" lengthAdjust="spacing" textLength="35.8408" x="108.25" y="370.292">Code</text></g><!--entity Bug--><g class="entity" data-qualified-name="Bug" data-source-line="8" id="ent0003"><rect fill="#F1F1F1" height="39.2969" rx="2.5" ry="2.5" style="stroke:#181818;stroke-width:0.5;" width="108.8525" x="76.75" y="44.2969"/><polygon fill="#F1F1F1" points="168.6025,49.2969,168.6025,63.2969,180.6025,63.2969,180.6025,55.2969,174.6025,49.2969,168.6025,49.2969" style="stroke:#181818;stroke-width:0.5;"/><line style="stroke:#181818;stroke-width:0.5;" x1="174.6025" x2="174.6025" y1="49.2969" y2="55.2969"/><line style="stroke:#181818;stroke-width:0.5;" x1="180.6025" x2="174.6025" y1="55.2969" y2="55.2969"/><text fill="#000000" font-family="sans-serif" font-size="14" lengthAdjust="spacing" textLength="78.8525" x="86.75" y="70.292">Bug Report</text></g><!--entity Requirements--><g class="entity" data-qualified-name="Requirements" data-source-line="9" id="ent0004"><rect fill="#F1F1F1" height="39.2969" rx="2.5" ry="2.5" style="stroke:#181818;stroke-width:0.5;" width="128.2666" x="67.04" y="270.2969"/><polygon fill="#F1F1F1" points="178.3066,275.2969,178.3066,289.2969,190.3066,289.2969,190.3066,281.2969,184.3066,275.2969,178.3066,275.2969" style="stroke:#181818;stroke-width:0.5;"/><line style="stroke:#181818;stroke-width:0.5;" x1="184.3066" x2="184.3066" y1="275.2969" y2="281.2969"/><line style="stroke:#181818;stroke-width:0.5;" x1="190.3066" x2="184.3066" y1="281.2969" y2="281.2969"/><text fill="#000000" font-family="sans-serif" font-size="14" lengthAdjust="spacing" textLength="98.2666" x="77.04" y="296.292">Requirements</text></g><!--entity PR--><g class="entity" data-qualified-name="PR" data-source-line="10" id="ent0005"><rect fill="#F1F1F1" height="39.2969" rx="2.5" ry="2.5" style="stroke:#181818;stroke-width:0.5;" width="203.1885" x="29.58" y="118.2969"/><polygon fill="#F1F1F1" points="215.7685,123.2969,215.7685,137.2969,227.7685,137.2969,227.7685,129.2969,221.7685,123.2969,215.7685,123.2969" style="stroke:#181818;stroke-width:0.5;"/><line style="stroke:#181818;stroke-width:0.5;" x1="221.7685" x2="221.7685" y1="123.2969" y2="129.2969"/><line style="stroke:#181818;stroke-width:0.5;" x1="227.7685" x2="221.7685" y1="129.2969" y2="129.2969"/><text fill="#000000" font-family="sans-serif" font-size="14" lengthAdjust="spacing" textLength="173.1885" x="39.58" y="144.292">Prioritised Requirements</text></g><!--entity TCH--><g class="entity" data-qualified-name="TCH" data-source-line="12" id="ent0006"><rect fill="#F1F1F1" height="39.2969" rx="2.5" ry="2.5" style="stroke:#181818;stroke-width:0.5;" width="237.0195" x="12.66" y="418.2969"/><polygon fill="#F1F1F1" points="232.6795,423.2969,232.6795,437.2969,244.6795,437.2969,244.6795,429.2969,238.6795,423.2969,232.6795,423.2969" style="stroke:#181818;stroke-width:0.5;"/><line style="stroke:#181818;stroke-width:0.5;" x1="238.6795" x2="238.6795" y1="423.2969" y2="429.2969"/><line style="stroke:#181818;stroke-width:0.5;" x1="244.6795" x2="238.6795" y1="429.2969" y2="429.2969"/><text fill="#000000" font-family="sans-serif" font-size="14" lengthAdjust="spacing" textLength="207.0195" x="22.66" y="444.292">Test Cases (human-readable)</text></g><!--entity TCM--><g class="entity" data-qualified-name="TCM" data-source-line="13" id="ent0007"><rect fill="#F1F1F1" height="39.2969" rx="2.5" ry="2.5" style="stroke:#181818;stroke-width:0.5;" width="248.3467" x="7" y="566.2969"/><polygon fill="#F1F1F1" points="238.3467,571.2969,238.3467,585.2969,250.3467,585.2969,250.3467,577.2969,244.3467,571.2969,238.3467,571.2969" style="stroke:#181818;stroke-width:0.5;"/><line style="stroke:#181818;stroke-width:0.5;" x1="244.3467" x2="244.3467" y1="571.2969" y2="577.2969"/><line style="stroke:#181818;stroke-width:0.5;" x1="250.3467" x2="244.3467" y1="577.2969" y2="577.2969"/><text fill="#000000" font-family="sans-serif" font-size="14" lengthAdjust="spacing" textLength="218.3467" x="17" y="592.292">Test Cases (machine-readable)</text></g><!--entity TR--><g class="entity" data-qualified-name="TR" data-source-line="14" id="ent0008"><rect fill="#F1F1F1" height="39.2969" rx="2.5" ry="2.5" style="stroke:#181818;stroke-width:0.5;" width="115.1143" x="73.62" y="492.2969"/><polygon fill="#F1F1F1" points="171.7343,497.2969,171.7343,511.2969,183.7343,511.2969,183.7343,503.2969,177.7343,497.2969,171.7343,497.2969" style="stroke:#181818;stroke-width:0.5;"/><line style="stroke:#181818;stroke-width:0.5;" x1="177.7343" x2="177.7343" y1="497.2969" y2="503.2969"/><line style="stroke:#181818;stroke-width:0.5;" x1="183.7343" x2="177.7343" y1="503.2969" y2="503.2969"/><text fill="#000000" font-family="sans-serif" font-size="14" lengthAdjust="spacing" textLength="85.1143" x="83.62" y="518.292">Test Runner</text></g><!--entity RN--><g class="entity" data-qualified-name="RN" data-source-line="16" id="ent0009"><rect fill="#F1F1F1" height="39.2969" rx="2.5" ry="2.5" style="stroke:#181818;stroke-width:0.5;" width="130.2148" x="66.07" y="196.2969"/><polygon fill="#F1F1F1" points="179.2848,201.2969,179.2848,215.2969,191.2848,215.2969,191.2848,207.2969,185.2848,201.2969,179.2848,201.2969" style="stroke:#181818;stroke-width:0.5;"/><line style="stroke:#181818;stroke-width:0.5;" x1="185.2848" x2="185.2848" y1="201.2969" y2="207.2969"/><line style="stroke:#181818;stroke-width:0.5;" x1="191.2848" x2="185.2848" y1="207.2969" y2="207.2969"/><text fill="#000000" font-family="sans-serif" font-size="14" lengthAdjust="spacing" textLength="100.2148" x="76.07" y="222.292">Release Notes</text></g><!--entity JIRA--><g class="entity" data-qualified-name="JIRA" data-source-line="19" id="ent0010"><polygon fill="#F1F1F1" points="364.42,121.7969,374.42,111.7969,431.9825,111.7969,431.9825,148.0938,421.9825,158.0938,364.42,158.0938,364.42,121.7969" style="stroke:#181818;stroke-width:0.5;"/><line style="stroke:#181818;stroke-width:0.5;" x1="421.9825" x2="431.9825" y1="121.7969" y2="111.7969"/><line style="stroke:#181818;stroke-width:0.5;" x1="364.42" x2="421.9825" y1="121.7969" y2="121.7969"/><line style="stroke:#181818;stroke-width:0.5;" x1="421.9825" x2="421.9825" y1="121.7969" y2="158.0938"/><text fill="#000000" font-family="sans-serif" font-size="14" lengthAdjust="spacing" textLength="27.5625" x="379.42" y="144.792">JIRA</text></g><!--entity Confluence--><g class="entity" data-qualified-name="Confluence" data-source-line="20" id="ent0011"><polygon fill="#F1F1F1" points="338.85,317.7969,348.85,307.7969,457.5521,307.7969,457.5521,344.0938,447.5521,354.0938,338.85,354.0938,338.85,317.7969" style="stroke:#181818;stroke-width:0.5;"/><line style="stroke:#181818;stroke-width:0.5;" x1="447.5521" x2="457.5521" y1="317.7969" y2="307.7969"/><line style="stroke:#181818;stroke-width:0.5;" x1="338.85" x2="447.5521" y1="317.7969" y2="317.7969"/><line style="stroke:#181818;stroke-width:0.5;" x1="447.5521" x2="447.5521" y1="317.7969" y2="354.0938"/><text fill="#000000" font-family="sans-serif" font-size="14" lengthAdjust="spacing" textLength="78.7021" x="353.85" y="340.792">Confluence</text></g><!--entity Win--><g class="entity" data-qualified-name="Win" data-source-line="21" id="ent0012"><polygon fill="#F1F1F1" points="315.35,498.7969,325.35,488.7969,481.0561,488.7969,481.0561,525.0938,471.0561,535.0938,315.35,535.0938,315.35,498.7969" style="stroke:#181818;stroke-width:0.5;"/><line style="stroke:#181818;stroke-width:0.5;" x1="471.0561" x2="481.0561" y1="498.7969" y2="488.7969"/><line style="stroke:#181818;stroke-width:0.5;" x1="315.35" x2="471.0561" y1="498.7969" y2="498.7969"/><line style="stroke:#181818;stroke-width:0.5;" x1="471.0561" x2="471.0561" y1="498.7969" y2="535.0938"/><text fill="#000000" font-family="sans-serif" font-size="14" lengthAdjust="spacing" textLength="125.7061" x="330.35" y="521.792">Windows Network</text></g><!--entity Email--><g class="entity" data-qualified-name="Email" data-source-line="22" id="ent0013"><polygon fill="#F1F1F1" points="358.78,202.7969,368.78,192.7969,437.6218,192.7969,437.6218,229.0938,427.6218,239.0938,358.78,239.0938,358.78,202.7969" style="stroke:#181818;stroke-width:0.5;"/><line style="stroke:#181818;stroke-width:0.5;" x1="427.6218" x2="437.6218" y1="202.7969" y2="192.7969"/><line style="stroke:#181818;stroke-width:0.5;" x1="358.78" x2="427.6218" y1="202.7969" y2="202.7969"/><line style="stroke:#181818;stroke-width:0.5;" x1="427.6218" x2="427.6218" y1="202.7969" y2="239.0938"/><text fill="#000000" font-family="sans-serif" font-size="14" lengthAdjust="spacing" textLength="38.8418" x="373.78" y="225.792">Email</text></g><!--link Bug to JIRA--><g class="link" data-entity-1="ent0003" data-entity-2="ent0010" data-link-type="dependency" data-source-line="25" id="lnk14"><path d="M185.81,78.3169 C239.2,92.6169 313.6545,112.5636 358.3545,124.5436" fill="none" id="Bug-to-JIRA" style="stroke:#181818;stroke-width:1;"/><polygon fill="#181818" points="364.15,126.0969,356.4923,119.9034,359.3204,124.8025,354.4213,127.6307,364.15,126.0969" style="stroke:#181818;stroke-width:1;"/></g><!--link Requirements to Confluence--><g class="link" data-entity-1="ent0004" data-entity-2="ent0011" data-link-type="dependency" data-source-line="27" id="lnk15"><path d="M195.65,299.7669 C239.14,306.4969 290.4704,314.4402 332.8404,320.9902" fill="none" id="Requirements-to-Confluence" style="stroke:#181818;stroke-width:1;"/><polygon fill="#181818" points="338.77,321.9069,330.4868,316.5788,333.8287,321.143,329.2645,324.4849,338.77,321.9069" style="stroke:#181818;stroke-width:1;"/></g><!--link PR to JIRA--><g class="link" data-entity-1="ent0005" data-entity-2="ent0010" data-link-type="dependency" data-source-line="28" id="lnk16"><path d="M233.12,136.8069 C279.5,136.2769 325.3404,135.7664 358.1104,135.3864" fill="none" id="PR-to-JIRA" style="stroke:#181818;stroke-width:1;"/><polygon fill="#181818" points="364.11,135.3169,355.0642,131.4215,359.1103,135.3749,355.157,139.421,364.11,135.3169" style="stroke:#181818;stroke-width:1;"/></g><!--link Code to Confluence--><g class="link" data-entity-1="ent0002" data-entity-2="ent0011" data-link-type="dependency" data-source-line="30" id="lnk17"><path d="M164.41,359.9369 C207.58,354.5569 279.0159,345.6574 332.6459,338.9874" fill="none" id="Code-to-Confluence" style="stroke:#181818;stroke-width:1;"/><polygon fill="#181818" points="338.6,338.2469,329.1751,335.3882,333.6382,338.864,330.1625,343.3271,338.6,338.2469" style="stroke:#181818;stroke-width:1;"/></g><!--link Code to Win--><g class="link" data-entity-1="ent0002" data-entity-2="ent0012" data-link-type="dependency" data-source-line="31" id="lnk18"><path d="M164.56,369.5169 C191.99,375.1069 231.78,385.3169 263.35,401.9469 C306.99,424.9369 345.3912,459.3904 370.4112,484.2204" fill="none" id="Code-to-Win" style="stroke:#181818;stroke-width:1;"/><polygon fill="#181818" points="374.67,488.4469,371.0995,479.268,371.121,484.9248,365.4642,484.9464,374.67,488.4469" style="stroke:#181818;stroke-width:1;"/></g><!--link TCH to Confluence--><g class="link" data-entity-1="ent0006" data-entity-2="ent0011" data-link-type="dependency" data-source-line="33" id="lnk19"><path d="M213.52,417.8369 C230.21,412.9169 247.52,407.2369 263.35,400.9469 C296.12,387.9169 326.1885,372.2126 352.2985,357.4326" fill="none" id="TCH-to-Confluence" style="stroke:#181818;stroke-width:1;"/><polygon fill="#181818" points="357.52,354.4769,347.7173,355.4294,353.1688,356.94,351.6583,362.3914,357.52,354.4769" style="stroke:#181818;stroke-width:1;"/></g><!--link TCM to Win--><g class="link" data-entity-1="ent0007" data-entity-2="ent0012" data-link-type="dependency" data-source-line="34" id="lnk20"><path d="M204.24,565.8269 C238.58,556.2369 274.0211,546.3408 309.5411,536.4208" fill="none" id="TCM-to-Win" style="stroke:#181818;stroke-width:1;"/><polygon fill="#181818" points="315.32,534.8069,305.5758,533.3752,310.5043,536.1518,307.7276,541.0803,315.32,534.8069" style="stroke:#181818;stroke-width:1;"/></g><!--link TR to Win--><g class="link" data-entity-1="ent0008" data-entity-2="ent0012" data-link-type="dependency" data-source-line="36" id="lnk21"><path d="M189.03,511.9469 C225.76,511.9469 268.15,511.9469 309.04,511.9469" fill="none" id="TR-to-Win" style="stroke:#181818;stroke-width:1;"/><polygon fill="#181818" points="315.04,511.9469,306.04,507.9469,310.04,511.9469,306.04,515.9469,315.04,511.9469" style="stroke:#181818;stroke-width:1;"/></g><!--link RN to Confluence--><g class="link" data-entity-1="ent0009" data-entity-2="ent0011" data-link-type="dependency" data-source-line="38" id="lnk22"><path d="M196.67,230.6569 C218.27,236.4969 242.22,243.9869 263.35,252.9469 C298.63,267.9169 331.0707,287.1302 357.3607,304.1202" fill="none" id="RN-to-Confluence" style="stroke:#181818;stroke-width:1;"/><polygon fill="#181818" points="362.4,307.3769,357.0122,299.1324,358.2006,304.663,352.67,305.8514,362.4,307.3769" style="stroke:#181818;stroke-width:1;"/></g><!--link RN to Email--><g class="link" data-entity-1="ent0009" data-entity-2="ent0013" data-link-type="dependency" data-source-line="39" id="lnk23"><path d="M196.67,215.9469 C247.23,215.9469 309.92,215.9469 352.36,215.9469" fill="none" id="RN-to-Email" style="stroke:#181818;stroke-width:1;"/><polygon fill="#181818" points="358.36,215.9469,349.36,211.9469,353.36,215.9469,349.36,219.9469,358.36,215.9469" style="stroke:#181818;stroke-width:1;"/></g><?plantuml-src TL5DIyD04BtlhnXwKG_5Nw1GYw12GzaMUXwJQJ9qF-BkfAM8_zrDOfiOSGzXPzwRzoPlXSKGx2eA10KToVZQaXF08Bp7N2AaJuF6dC7maPIA1tOr1hGGvPn6emHE36kKeRs0U0XSLW851yg5lLFg1XxQ0ukhPbUhYmSiVK53DNjgIj1K-o0pm0Yf741D7qrIRdUCev5rO1zOE5BnYz89hBKINvAad_mSpMmf9ckC5E6sQYowUI0iyDtGNJUsNRxymxQOL-pe3tyrvUl6EGezgjNN2DPaA8b1veNwBNKs9BKH7x0ak8VDEGhPIs8k1GLlhthHtvRUxKr3BgU-dktO5VuK8ICv-N3eT5ElHvyjiXayLbZNxCgBT1lwVFxOgwjnXbrxPBNM8sBxT5F2jTTQgnJZb92I6k5wkEjiIltfTBj_0m00?></g></svg>